<svg width="29" height="24" viewBox="0 0 29 24" fill="none" xmlns="http://www.w3.org/2000/svg">
<path d="M28.8248 10.7463C26.0945 4.33666 20.6892 0 14.5 0C8.3108 0 2.90401 4.33969 0.175181 10.7469C0.0600076 11.021 0 11.3238 0 11.631C0 11.9381 0.0600076 12.241 0.175181 12.5151C2.90552 18.9247 8.3108 23.2613 14.5 23.2613C20.6892 23.2613 26.096 18.9216 28.8248 12.5145C28.94 12.2404 29 11.9375 29 11.6304C29 11.3232 28.94 11.0204 28.8248 10.7463ZM14.5 20.3537C13.0661 20.3537 11.6644 19.8421 10.4721 18.8836C9.27985 17.9251 8.3506 16.5627 7.80186 14.9688C7.25312 13.3749 7.10955 11.621 7.38929 9.9289C7.66904 8.2368 8.35953 6.68251 9.37347 5.46257C10.3874 4.24264 11.6792 3.41186 13.0856 3.07528C14.492 2.7387 15.9497 2.91144 17.2745 3.57167C18.5992 4.23189 19.7315 5.34994 20.5282 6.78443C21.3248 8.21892 21.75 9.90542 21.75 11.6307C21.7505 12.7763 21.5633 13.9109 21.1991 14.9695C20.8349 16.0281 20.3009 16.9899 19.6276 17.8C18.9542 18.6101 18.1548 19.2526 17.275 19.6908C16.3952 20.129 15.4522 20.3542 14.5 20.3537ZM14.5 5.81533C14.0686 5.82259 13.64 5.89981 13.2257 6.04492C13.5672 6.60324 13.731 7.2903 13.6876 7.98151C13.6441 8.67273 13.3962 9.32231 12.9888 9.81247C12.5814 10.3026 12.0415 10.6009 11.467 10.6532C10.8926 10.7055 10.3215 10.5083 9.85747 10.0975C9.59323 11.2688 9.64093 12.5103 9.99386 13.6473C10.3468 14.7842 10.9872 15.7594 11.8249 16.4356C12.6625 17.1117 13.6554 17.4548 14.6636 17.4164C15.6718 17.3781 16.6447 16.9604 17.4453 16.2219C18.2458 15.4835 18.8338 14.4617 19.1263 13.3001C19.4189 12.1386 19.4014 10.896 19.0762 9.74709C18.7511 8.5982 18.1346 7.60091 17.3137 6.8956C16.4928 6.19029 15.5087 5.81248 14.5 5.81533Z" fill="#02713C"/>
</svg>
